<svg xmlns="http://www.w3.org/2000/svg" xmlns:svg="http://www.w3.org/2000/svg" id="svg2" width="18" height="18" version="1.1"><metadata id="metadata8"/><g id="g3015" transform="matrix(1.0006984,0,0,1.0006984,31.513714,-5.837282)" style="fill:#000"><path style="fill:#000;fill-opacity:1;fill-rule:evenodd;stroke:none" id="rect2987" d="M 1.25 1.46875 C 0.55816748 1.46875 0 2.0269175 0 2.71875 L 0 13.3125 C 0 14.004333 0.55816748 14.5625 1.25 14.5625 L 13.75 14.5625 C 14.441833 14.5625 15 14.004333 15 13.3125 L 15 2.71875 C 15 2.0269175 14.441833 1.46875 13.75 1.46875 L 1.25 1.46875 z M 0.96875 4.46875 L 14.03125 4.46875 L 14.03125 13.65625 L 0.96875 13.65625 L 0.96875 4.46875 z" transform="matrix(0.99930209,0,0,0.99930209,-31.49172,5.8332081)"/><rect id="rect2991" width="3.01" height="1.028" x="-29.363" y="12.296" ry="0" style="fill:#000;fill-opacity:1;fill-rule:evenodd;stroke:none"/><rect style="fill:#000;fill-opacity:1;fill-rule:evenodd;stroke:none" id="rect2993" width="3.01" height="1.028" x="-29.363" y="15.526" ry="0"/><path style="fill:#000;fill-opacity:1;fill-rule:evenodd;stroke:none" id="path2995" d="M 9.6875 5.96875 C 7.6184284 5.96875 5.9375 7.6184284 5.9375 9.6875 C 5.9375 11.756572 7.6184284 13.4375 9.6875 13.4375 C 11.756572 13.4375 13.4375 11.756572 13.4375 9.6875 C 13.4375 7.6184284 11.756572 5.96875 9.6875 5.96875 z M 9.6875 6.90625 C 11.229161 6.90625 12.5 8.1458388 12.5 9.6875 C 12.5 11.229161 11.229161 12.5 9.6875 12.5 C 8.1458388 12.5 6.90625 11.229161 6.90625 9.6875 C 6.90625 8.1458388 8.1458388 6.90625 9.6875 6.90625 z" transform="matrix(0.99930209,0,0,0.99930209,-31.49172,5.8332081)"/><path style="fill:#000;fill-opacity:1;fill-rule:evenodd;stroke:none" id="rect2999" d="m -20.763098,18.760339 1.082757,1.082757 3.115689,3.115689 0.419845,0.419845 c 0.603883,0.603883 1.583728,0.581786 2.187612,-0.0221 0.603883,-0.603883 0.603883,-1.561631 0,-2.165515 l -0.419845,-0.419844 -3.115689,-3.115689 -1.082757,-1.082758 -1.082758,1.082758 -1.104854,1.104854 z"/></g></svg>