<svg xmlns="http://www.w3.org/2000/svg" xmlns:svg="http://www.w3.org/2000/svg" id="svg2" width="40" height="40" version="1.1"><metadata id="metadata7"/><g id="layer1" transform="translate(0,-1012.3622)"><path style="fill:#a94442;fill-opacity:1;fill-rule:evenodd;stroke:none" id="path2989" d="m 20,1012.3936 c -11.0417335,0 -20,8.9583 -20,20.0001 0,11.0417 8.9582665,19.9685 20,19.9685 11.041734,0 20,-8.9268 20,-19.9685 0,-11.0418 -8.958266,-20.0001 -20,-20.0001 z m 0.03145,5.8899 c 1.209448,0 2.173228,0.9952 2.173228,2.2047 l 0,16.2834 c 0,1.2498 -0.96378,2.2363 -2.173228,2.2363 -1.209449,0 -2.236221,-0.9865 -2.236221,-2.2363 l 0,-16.2834 c 0,-1.2095 1.026772,-2.2047 2.236221,-2.2047 z m 0,22.9605 c 1.209448,0 2.173228,1.0269 2.173228,2.2363 l 0,0.7874 c 0,1.2497 -0.96378,2.2362 -2.173228,2.2362 -1.209449,0 -2.236221,-0.9865 -2.236221,-2.2362 l 0,-0.7874 c 0,-1.2094 1.026772,-2.2363 2.236221,-2.2363 z"/></g></svg>