<svg xmlns="http://www.w3.org/2000/svg" xmlns:svg="http://www.w3.org/2000/svg" id="svg5512" width="25" height="22" version="1.1"><metadata id="metadata5517"/><g id="layer1" transform="translate(0,-1030.3622)"><path id="path16199" d="m 12.443655,1030.365 c -0.105478,0.012 -0.203528,0.06 -0.278205,0.1356 l -12.03083265,12.0367 c -0.18193721,0.1837 -0.18025352,0.4803 0.009904,0.6619 0.0871555,0.086 0.2047165,0.1349 0.32742754,0.1354 l 2.54137651,0 0,8.5612 c 0,0.2571 0.2089753,0.4654 0.4661832,0.4664 l 3.1658261,0 4.3535193,0 3.008054,0 4.466326,0 3.053118,0 c 0.256911,0 0.465094,-0.2093 0.466084,-0.4664 l 0,-8.5609 2.541476,0 c 0.258396,0 0.467173,-0.2113 0.466084,-0.4699 0,-0.1228 -0.04853,-0.2403 -0.13519,-0.3277 l -2.932586,-2.9339 0,-4.0173 c 0,-0.257 -0.209174,-0.4653 -0.466184,-0.4663 l -1.984967,0 c -0.25701,0 -0.465193,0.2093 -0.466282,0.4663 l 0,1.0983 -6.181012,-6.1838 c -0.100526,-0.1013 -0.242055,-0.1513 -0.383683,-0.1356 z" style="fill:#f9f9f9;fill-opacity:1"/></g></svg>