<svg xmlns="http://www.w3.org/2000/svg" xmlns:svg="http://www.w3.org/2000/svg" id="svg2" width="40" height="40" version="1.1"><metadata id="metadata7"/><g id="layer1" transform="translate(0,-1012.3622)"><path style="fill:#31708f;fill-opacity:1;fill-rule:evenodd;stroke:none" id="path2989" d="m 20,1012.3937 c -11.04173,0 -20,8.9582 -20,20 0,11.0417 8.95827,19.9685 20,19.9685 11.04173,0 20,-8.9268 20,-19.9685 0,-11.0418 -8.95827,-20 -20,-20 z m 0,5.8897 c 1.24976,0 2.17323,0.9638 2.17323,2.1733 l 0,0.8504 c 0,1.2094 -0.92347,2.2047 -2.17323,2.2047 -1.20945,0 -2.17323,-0.9953 -2.17323,-2.2047 l 0,-0.8504 c 0,-1.2095 0.96378,-2.1733 2.17323,-2.1733 z m 0,8.0945 c 1.24976,0 2.17323,0.9147 2.17323,2.2048 l 0,15.748 c 0,1.2094 -0.92347,2.1732 -2.17323,2.1732 -1.20945,0 -2.17323,-0.9638 -2.17323,-2.1732 l 0,-15.748 c 0,-1.2901 0.96378,-2.2048 2.17323,-2.2048 z"/></g></svg>